<svg width="38" height="39" viewBox="0 0 38 39" fill="none" xmlns="http://www.w3.org/2000/svg">
<g id="check-circle">
<path id="Vector (Stroke)" fill-rule="evenodd" clip-rule="evenodd" d="M24.7997 6.47454C21.9929 5.22387 18.8569 4.91404 15.8596 5.59125C12.8622 6.26846 10.1641 7.89644 8.16754 10.2324C6.17101 12.5683 4.98307 15.487 4.78088 18.5533C4.57869 21.6195 5.37309 24.669 7.04561 27.2469C8.71812 29.8247 11.1791 31.7929 14.0616 32.8578C16.9441 33.9227 20.0936 34.0274 23.0404 33.1561C25.9872 32.2848 28.5734 30.4843 30.4133 28.0231C32.2532 25.562 33.2482 22.5719 33.25 19.499V18.0433C33.25 17.1688 33.9589 16.4599 34.8333 16.4599C35.7078 16.4599 36.4167 17.1688 36.4167 18.0433V19.4999C36.4145 23.2557 35.1984 26.9111 32.9496 29.9192C30.7008 32.9273 27.5399 35.1279 23.9382 36.1928C20.3366 37.2577 16.4872 37.1298 12.9642 35.8283C9.44116 34.5267 6.43326 32.1211 4.38908 28.9704C2.34489 25.8197 1.37396 22.0926 1.62107 18.3449C1.86819 14.5973 3.32012 11.03 5.76032 8.17492C8.20053 5.31989 11.4983 3.33015 15.1617 2.50244C18.8251 1.67474 22.658 2.05342 26.0886 3.58202C26.8873 3.93792 27.2463 4.87395 26.8904 5.6727C26.5345 6.47145 25.5985 6.83045 24.7997 6.47454Z" fill="#F8F8F8"/>
<path id="Vector (Stroke)_2" fill-rule="evenodd" clip-rule="evenodd" d="M35.9524 5.71319C36.571 6.33121 36.5715 7.33372 35.9535 7.95236L20.1201 23.8015C19.8233 24.0987 19.4205 24.2657 19.0004 24.2658C18.5803 24.2659 18.1774 24.0991 17.8804 23.8021L13.1304 19.0521C12.5121 18.4338 12.5121 17.4312 13.1304 16.8129C13.7487 16.1946 14.7513 16.1946 15.3696 16.8129L18.9994 20.4428L33.7132 5.71431C34.3312 5.09567 35.3337 5.09517 35.9524 5.71319Z" fill="#F8F8F8"/>
</g>
</svg>
