<svg width="38" height="39" viewBox="0 0 38 39" fill="none" xmlns="http://www.w3.org/2000/svg">
<g id="clock">
<path id="Vector (Stroke)" fill-rule="evenodd" clip-rule="evenodd" d="M19 5.24992C11.13 5.24992 4.75001 11.6299 4.75001 19.4999C4.75001 27.37 11.13 33.7499 19 33.7499C26.8701 33.7499 33.25 27.37 33.25 19.4999C33.25 11.6299 26.8701 5.24992 19 5.24992ZM1.58334 19.4999C1.58334 9.88096 9.38105 2.08325 19 2.08325C28.619 2.08325 36.4167 9.88096 36.4167 19.4999C36.4167 29.1189 28.619 36.9166 19 36.9166C9.38105 36.9166 1.58334 29.1189 1.58334 19.4999Z" fill="#F8F8F8"/>
<path id="Vector (Stroke)_2" fill-rule="evenodd" clip-rule="evenodd" d="M19 8.41675C19.8744 8.41675 20.5833 9.12563 20.5833 10.0001V18.5215L26.0414 21.2506C26.8235 21.6416 27.1406 22.5927 26.7495 23.3748C26.3584 24.157 25.4074 24.474 24.6252 24.0829L18.2919 20.9163C17.7555 20.6481 17.4167 20.0998 17.4167 19.5001V10.0001C17.4167 9.12563 18.1255 8.41675 19 8.41675Z" fill="#F8F8F8"/>
</g>
</svg>
