<svg width="38" height="39" viewBox="0 0 38 39" fill="none" xmlns="http://www.w3.org/2000/svg">
<g id="Medical Symbol">
<path id="Vector (Stroke)" fill-rule="evenodd" clip-rule="evenodd" d="M19 2.93438C9.34278 2.93438 2.43438 9.84278 2.43438 19.5C2.43438 29.1572 9.34278 36.0656 19 36.0656C28.6572 36.0656 35.5656 29.1572 35.5656 19.5C35.5656 9.84278 28.6572 2.93438 19 2.93438ZM0.59375 19.5C0.59375 8.82623 8.32623 1.09375 19 1.09375C29.6738 1.09375 37.4062 8.82623 37.4062 19.5C37.4062 30.1738 29.6738 37.9062 19 37.9062C8.32623 37.9062 0.59375 30.1738 0.59375 19.5Z" fill="#F9FBFC" stroke="#F9FBFC"/>
<g id="Vector (Stroke)_2">
<path fill-rule="evenodd" clip-rule="evenodd" d="M17.8073 11.2612C17.5341 11.2798 17.4066 11.313 17.3263 11.3463C16.989 11.4859 16.721 11.7539 16.5813 12.0912C16.5481 12.1715 16.5149 12.299 16.4963 12.5722C16.4771 12.8536 16.4766 13.2179 16.4766 13.7649V15.9488C16.4766 15.9496 16.4785 16.0416 16.4664 16.1315C16.4507 16.2483 16.3986 16.4847 16.1917 16.6917C15.9847 16.8986 15.7483 16.9507 15.6315 16.9664C15.5416 16.9785 15.4497 16.9766 15.4488 16.9766H13.2649C12.7179 16.9766 12.3536 16.9771 12.0722 16.9963C11.799 17.0149 11.6715 17.0481 11.5912 17.0813C11.2539 17.221 10.9859 17.489 10.8463 17.8263C10.813 17.9066 10.7798 18.0341 10.7612 18.3073C10.742 18.5887 10.7415 18.953 10.7415 19.5C10.7415 20.047 10.742 20.4113 10.7612 20.6927C10.7798 20.9659 10.813 21.0934 10.8463 21.1737C10.986 21.511 11.2539 21.779 11.5912 21.9187C11.6715 21.9519 11.799 21.9851 12.0722 22.0037C12.3536 22.0229 12.7179 22.0234 13.2649 22.0234H15.4488C15.4488 22.0234 15.5412 22.0215 15.6315 22.0336C15.7483 22.0493 15.9847 22.1014 16.1917 22.3083C16.3986 22.5153 16.4507 22.7517 16.4664 22.8685C16.4785 22.9588 16.4766 23.0512 16.4766 23.0512V25.2351C16.4766 25.7821 16.4771 26.1464 16.4963 26.4278C16.5149 26.701 16.5481 26.8285 16.5813 26.9088C16.721 27.2461 16.989 27.514 17.3262 27.6537C17.4066 27.687 17.5341 27.7202 17.8073 27.7388C18.0887 27.758 18.453 27.7585 19 27.7585C19.547 27.7585 19.9113 27.758 20.1927 27.7388C20.4659 27.7202 20.5934 27.687 20.6737 27.6537C21.011 27.514 21.279 27.2461 21.4187 26.9088C21.4519 26.8285 21.4851 26.701 21.5037 26.4278C21.5229 26.1464 21.5234 25.7821 21.5234 25.2351V23.0512C21.5234 23.0512 21.5215 22.9588 21.5336 22.8685C21.5493 22.7517 21.6014 22.5153 21.8083 22.3083C22.0153 22.1014 22.2517 22.0493 22.3685 22.0336C22.4588 22.0215 22.5512 22.0234 22.5512 22.0234H24.7351C25.2821 22.0234 25.6464 22.0229 25.9278 22.0037C26.201 21.9851 26.3285 21.9519 26.4088 21.9187C26.7461 21.779 27.014 21.511 27.1537 21.1738C27.187 21.0934 27.2202 20.9659 27.2388 20.6927C27.258 20.4113 27.2585 20.047 27.2585 19.5C27.2585 18.953 27.258 18.5887 27.2388 18.3073C27.2202 18.0341 27.187 17.9066 27.1537 17.8263C27.014 17.489 26.7461 17.221 26.4088 17.0813C26.3285 17.0481 26.201 17.0149 25.9278 16.9963C25.6464 16.9771 25.2821 16.9766 24.7351 16.9766H22.5512C22.5512 16.9766 22.4588 16.9785 22.3685 16.9664C22.2517 16.9507 22.0153 16.8986 21.8083 16.6917C21.6014 16.4847 21.5493 16.2483 21.5336 16.1315C21.5215 16.0412 21.5234 15.9488 21.5234 15.9488V13.7649C21.5234 13.2179 21.5229 12.8536 21.5037 12.5722C21.4851 12.299 21.4519 12.1715 21.4187 12.0912C21.279 11.7539 21.011 11.486 20.6737 11.3463C20.5934 11.313 20.4659 11.2798 20.1927 11.2612C19.9113 11.242 19.547 11.2415 19 11.2415C18.453 11.2415 18.0887 11.242 17.8073 11.2612ZM18.9694 9.40625H19.0306C19.539 9.40624 19.9663 9.40623 20.3177 9.43021C20.6843 9.45522 21.0348 9.50938 21.3761 9.65072C22.163 9.97669 22.7882 10.6019 23.1142 11.3889C23.2555 11.7301 23.3097 12.0806 23.3347 12.4473C23.3587 12.7986 23.3587 13.2259 23.3587 13.7343V15.1413H24.7657C25.2741 15.1413 25.7014 15.1413 26.0527 15.1653C26.4194 15.1903 26.7699 15.2445 27.1111 15.3858C27.8981 15.7118 28.5233 16.337 28.8493 17.1239C28.9906 17.4652 29.0448 17.8157 29.0698 18.1823C29.0938 18.5337 29.0938 18.961 29.0937 19.4694V19.5306C29.0938 20.039 29.0938 20.4663 29.0698 20.8177C29.0448 21.1843 28.9906 21.5348 28.8493 21.8761C28.5233 22.663 27.8981 23.2882 27.1111 23.6142C26.7699 23.7555 26.4194 23.8097 26.0527 23.8347C25.7014 23.8587 25.2741 23.8587 24.7657 23.8587H23.3587V25.2657C23.3587 25.7741 23.3587 26.2014 23.3347 26.5527C23.3097 26.9194 23.2555 27.2699 23.1142 27.6111C22.7882 28.3981 22.163 29.0233 21.3761 29.3493C21.0348 29.4906 20.6843 29.5448 20.3177 29.5698C19.9663 29.5938 19.539 29.5938 19.0306 29.5937H18.9694C18.461 29.5938 18.0337 29.5938 17.6823 29.5698C17.3157 29.5448 16.9652 29.4906 16.6239 29.3493C15.837 29.0233 15.2118 28.3981 14.8858 27.6111C14.7445 27.2699 14.6903 26.9194 14.6653 26.5527C14.6413 26.2014 14.6413 25.7741 14.6413 25.2657V23.8587H13.2343C12.7259 23.8587 12.2986 23.8587 11.9473 23.8347C11.5806 23.8097 11.2301 23.7555 10.8889 23.6142C10.1019 23.2882 9.47669 22.663 9.15072 21.8761C9.00938 21.5348 8.95522 21.1843 8.93021 20.8177C8.90623 20.4663 8.90624 20.039 8.90625 19.5306V19.4694C8.90624 18.961 8.90623 18.5337 8.93021 18.1823C8.95522 17.8157 9.00938 17.4652 9.15072 17.1239C9.47669 16.337 10.1019 15.7118 10.8889 15.3858C11.2301 15.2445 11.5806 15.1903 11.9473 15.1653C12.2986 15.1413 12.7259 15.1413 13.2343 15.1413H14.6413V13.7343C14.6413 13.2259 14.6413 12.7986 14.6653 12.4473C14.6903 12.0806 14.7445 11.7301 14.8858 11.3889C15.2118 10.6019 15.837 9.97669 16.6239 9.65072C16.9652 9.50938 17.3157 9.45522 17.6823 9.43021C18.0337 9.40623 18.461 9.40624 18.9694 9.40625Z" fill="#F9FBFC"/>
<path d="M10.8889 15.3858C10.1019 15.7118 9.47669 16.337 9.15072 17.1239C9.00938 17.4652 8.95522 17.8157 8.93021 18.1823C8.90623 18.5337 8.90624 18.961 8.90625 19.4694V19.5306C8.90624 20.039 8.90623 20.4663 8.93021 20.8177C8.95522 21.1843 9.00938 21.5348 9.15072 21.8761C9.47669 22.663 10.1019 23.2882 10.8889 23.6142C11.2301 23.7555 11.5806 23.8097 11.9473 23.8347C12.2986 23.8587 12.7259 23.8587 13.2343 23.8587H14.6413V25.2657C14.6413 25.7741 14.6413 26.2014 14.6653 26.5527C14.6903 26.9194 14.7445 27.2699 14.8858 27.6111C15.2118 28.3981 15.837 29.0233 16.6239 29.3493C16.9652 29.4906 17.3157 29.5448 17.6823 29.5698C18.0337 29.5938 18.461 29.5938 18.9694 29.5937H19.0306C19.539 29.5938 19.9663 29.5938 20.3177 29.5698C20.6843 29.5448 21.0348 29.4906 21.3761 29.3493C22.163 29.0233 22.7882 28.3981 23.1142 27.6111C23.2555 27.2699 23.3097 26.9194 23.3347 26.5527C23.3587 26.2014 23.3587 25.7741 23.3587 25.2657V23.8587H24.7657C25.2741 23.8587 25.7014 23.8587 26.0527 23.8347C26.4194 23.8097 26.7699 23.7555 27.1111 23.6142C27.8981 23.2882 28.5233 22.663 28.8493 21.8761C28.9906 21.5348 29.0448 21.1843 29.0698 20.8177C29.0938 20.4663 29.0938 20.039 29.0937 19.5306V19.4694C29.0938 18.961 29.0938 18.5337 29.0698 18.1823C29.0448 17.8157 28.9906 17.4652 28.8493 17.1239C28.5233 16.337 27.8981 15.7118 27.1111 15.3858C26.7699 15.2445 26.4194 15.1903 26.0527 15.1653C25.7014 15.1413 25.2741 15.1413 24.7657 15.1413H23.3587V13.7343C23.3587 13.2259 23.3587 12.7986 23.3347 12.4473C23.3097 12.0806 23.2555 11.7301 23.1142 11.3889C22.7882 10.6019 22.163 9.97669 21.3761 9.65072C21.0348 9.50938 20.6843 9.45522 20.3177 9.43021C19.9663 9.40623 19.539 9.40624 19.0306 9.40625H18.9694C18.461 9.40624 18.0337 9.40623 17.6823 9.43021C17.3157 9.45522 16.9652 9.50938 16.6239 9.65072M10.8889 15.3858L11.24 16.2336M10.8889 15.3858C11.2301 15.2445 11.5806 15.1903 11.9473 15.1653C12.2986 15.1413 12.7259 15.1413 13.2343 15.1413H14.6413V13.7343C14.6413 13.2259 14.6413 12.7986 14.6653 12.4473C14.6903 12.0806 14.7445 11.7301 14.8858 11.3889M14.8858 11.3889L15.7336 11.74M14.8858 11.3889C15.2118 10.6019 15.837 9.97669 16.6239 9.65072M16.6239 9.65072L16.9751 10.4985M17.3262 11.3463C17.4066 11.313 17.5341 11.2798 17.8073 11.2612C18.0887 11.242 18.453 11.2415 19 11.2415C19.547 11.2415 19.9113 11.242 20.1927 11.2612C20.4659 11.2798 20.5934 11.313 20.6737 11.3463C21.011 11.486 21.279 11.7539 21.4187 12.0912C21.4519 12.1715 21.4851 12.299 21.5037 12.5722C21.5229 12.8536 21.5234 13.2179 21.5234 13.7649V15.9488C21.5234 15.9488 21.5215 16.0412 21.5336 16.1315C21.5493 16.2483 21.6014 16.4847 21.8083 16.6917C22.0153 16.8986 22.2517 16.9507 22.3685 16.9664C22.4588 16.9785 22.5512 16.9766 22.5512 16.9766H24.7351C25.2821 16.9766 25.6464 16.9771 25.9278 16.9963C26.201 17.0149 26.3285 17.0481 26.4088 17.0813C26.7461 17.221 27.0141 17.489 27.1537 17.8262C27.187 17.9066 27.2202 18.0341 27.2388 18.3073C27.258 18.5887 27.2585 18.953 27.2585 19.5C27.2585 20.047 27.258 20.4113 27.2388 20.6927C27.2202 20.9659 27.187 21.0934 27.1537 21.1738C27.0141 21.511 26.7461 21.779 26.4088 21.9187C26.3285 21.9519 26.201 21.9851 25.9278 22.0037C25.6464 22.0229 25.2821 22.0234 24.7351 22.0234H22.5512C22.5512 22.0234 22.4588 22.0215 22.3685 22.0336C22.2517 22.0493 22.0153 22.1014 21.8083 22.3083C21.6014 22.5153 21.5493 22.7517 21.5336 22.8685C21.5215 22.9588 21.5234 23.0512 21.5234 23.0512V25.2351C21.5234 25.7821 21.5229 26.1464 21.5037 26.4278C21.4851 26.701 21.4519 26.8285 21.4187 26.9088C21.279 27.2461 21.011 27.5141 20.6738 27.6537C20.5934 27.687 20.4659 27.7202 20.1927 27.7388C19.9113 27.758 19.547 27.7585 19 27.7585C18.453 27.7585 18.0887 27.758 17.8073 27.7388C17.5341 27.7202 17.4066 27.687 17.3262 27.6537C16.989 27.5141 16.721 27.2461 16.5813 26.9088C16.5481 26.8285 16.5149 26.701 16.4963 26.4278C16.4771 26.1464 16.4766 25.7821 16.4766 25.2351V23.0512C16.4766 23.0512 16.4785 22.9588 16.4664 22.8685C16.4507 22.7517 16.3986 22.5153 16.1917 22.3083C15.9847 22.1014 15.7483 22.0493 15.6315 22.0336C15.5412 22.0215 15.4488 22.0234 15.4488 22.0234H13.2649C12.7179 22.0234 12.3536 22.0229 12.0722 22.0037C11.799 21.9851 11.6715 21.9519 11.5912 21.9187C11.2539 21.779 10.986 21.511 10.8463 21.1737C10.813 21.0934 10.7798 20.9659 10.7612 20.6927C10.742 20.4113 10.7415 20.047 10.7415 19.5C10.7415 18.953 10.742 18.5887 10.7612 18.3073C10.7798 18.0341 10.813 17.9066 10.8463 17.8262C10.9859 17.489 11.2539 17.221 11.5912 17.0813C11.6715 17.0481 11.799 17.0149 12.0722 16.9963C12.3536 16.9771 12.7179 16.9766 13.2649 16.9766H15.4488C15.4497 16.9766 15.5416 16.9785 15.6315 16.9664C15.7483 16.9507 15.9847 16.8986 16.1917 16.6917C16.3986 16.4847 16.4507 16.2483 16.4664 16.1315C16.4785 16.0416 16.4766 15.9496 16.4766 15.9488V13.7649C16.4766 13.2179 16.4771 12.8536 16.4963 12.5722C16.5149 12.299 16.5481 12.1715 16.5813 12.0912C16.721 11.7539 16.989 11.486 17.3262 11.3463Z" stroke="#F9FBFC"/>
</g>
</g>
</svg>
